<svg width="1280" height="720" viewBox="0 0 1280 720" fill="none" xmlns="http://www.w3.org/2000/svg">
<rect x="2.5" y="2.5" width="1275" height="715" fill="white"/>
<g filter="url(#filter0_d_4_19)">
<path d="M646 99H851V241H646V99Z" fill="white"/>
</g>
<g filter="url(#filter1_d_4_19)">
<path d="M863 99H1062V241H863V99Z" fill="white"/>
</g>
<g filter="url(#filter2_d_4_19)">
<path d="M1071 99H1270V241H1071V99Z" fill="white"/>
</g>
<g filter="url(#filter3_d_4_19)">
<rect x="14" y="99" width="624" height="29" fill="url(#paint0_linear_4_19)"/>
</g>
<g filter="url(#filter4_d_4_19)">
<path d="M13 251H638V280H13V251Z" fill="url(#paint1_linear_4_19)"/>
</g>
<g filter="url(#filter5_d_4_19)">
<path d="M14 466H638V495H14V466Z" fill="url(#paint2_linear_4_19)"/>
</g>
<g filter="url(#filter6_d_4_19)">
<rect x="12" y="280" width="626" height="180" fill="white"/>
</g>
<g filter="url(#filter7_d_4_19)">
<rect x="646" y="247" width="624" height="213" fill="white"/>
</g>
<g filter="url(#filter8_d_4_19)">
<rect x="646" y="466" width="624" height="244" fill="white"/>
</g>
<g filter="url(#filter9_d_4_19)">
<rect x="14" y="135" width="200" height="106" rx="4" fill="url(#paint3_linear_4_19)"/>
</g>
<g filter="url(#filter10_d_4_19)">
<rect x="226" y="135" width="200" height="106" rx="4" fill="url(#paint4_linear_4_19)"/>
</g>
<g filter="url(#filter11_d_4_19)">
<rect x="438" y="135" width="200" height="106" rx="4" fill="url(#paint5_linear_4_19)"/>
</g>
<g filter="url(#filter12_d_4_19)">
<rect x="13" y="500" width="292" height="210" fill="white"/>
</g>
<g filter="url(#filter13_d_4_19)">
<rect x="313" y="500" width="325" height="210" fill="white"/>
</g>
<path d="M28.4541 123L18.8633 109.984C18.6686 109.722 18.4964 109.46 18.3467 109.198L18.2007 108.973H18.1558C18.1707 109.168 18.1782 109.404 18.1782 109.681V123H17.0664V106.896H17.9199L27.4434 119.799C27.653 120.084 27.8813 120.428 28.1284 120.833H28.1846C28.1471 120.308 28.1284 119.859 28.1284 119.485V106.896H29.2402V123H28.4541ZM33.3955 117.295C33.3955 118.875 33.7586 120.11 34.4849 121.001C35.2186 121.892 36.2218 122.337 37.4946 122.337C38.7824 122.337 40.0402 121.862 41.2681 120.911V122.012C40.0776 122.858 38.7487 123.281 37.2812 123.281C35.7988 123.281 34.6009 122.749 33.6875 121.686C32.7741 120.623 32.3174 119.122 32.3174 117.183C32.3174 115.506 32.7928 114.094 33.7437 112.949C34.702 111.796 35.9448 111.219 37.4722 111.219C38.9022 111.219 39.999 111.721 40.7627 112.724C41.5264 113.727 41.9082 115.097 41.9082 116.834V117.295H33.3955ZM40.8301 116.352C40.7852 115.026 40.467 113.997 39.8755 113.263C39.284 112.529 38.4679 112.163 37.4272 112.163C36.3491 112.163 35.4544 112.526 34.7432 113.252C34.0394 113.971 33.6051 115.004 33.4404 116.352H40.8301ZM49.3091 122.843C48.77 123.097 48.2646 123.225 47.793 123.225C46.0934 123.225 45.2437 122.206 45.2437 120.17V112.443H43.1772V111.5H45.2437V108.513C45.4084 108.453 45.5806 108.393 45.7603 108.333C45.9399 108.281 46.1121 108.224 46.2769 108.165V111.5H49.3091V112.443H46.2769V120.035C46.2769 120.829 46.4004 121.405 46.6475 121.765C46.902 122.117 47.3288 122.292 47.9277 122.292C48.3545 122.292 48.8149 122.154 49.3091 121.877V122.843ZM57.6196 122.427V121.158C58.7726 121.892 59.9406 122.259 61.1235 122.259C62.3813 122.259 63.3359 122 63.9873 121.484C64.6387 120.96 64.9644 120.23 64.9644 119.294C64.9644 118.47 64.7435 117.815 64.3018 117.329C63.8675 116.834 62.9204 116.164 61.4604 115.318C59.8283 114.368 58.7951 113.574 58.3608 112.938C57.9266 112.294 57.7095 111.552 57.7095 110.714C57.7095 109.576 58.1512 108.61 59.0347 107.816C59.9181 107.023 61.0973 106.626 62.5723 106.626C63.5306 106.626 64.4889 106.787 65.4473 107.109V108.277C64.5039 107.85 63.4969 107.637 62.4263 107.637C61.3332 107.637 60.4647 107.914 59.8208 108.468C59.1844 109.022 58.8662 109.726 58.8662 110.579C58.8662 111.403 59.0833 112.058 59.5176 112.544C59.9593 113.031 60.9064 113.694 62.3589 114.532C63.8638 115.386 64.8633 116.146 65.3574 116.812C65.859 117.471 66.1099 118.231 66.1099 119.092C66.1099 120.327 65.6794 121.334 64.8184 122.113C63.9648 122.891 62.7557 123.281 61.1909 123.281C60.6369 123.281 59.9967 123.195 59.2705 123.022C58.5518 122.85 58.0015 122.652 57.6196 122.427ZM76.2061 123V120.698H76.1611C75.7943 121.484 75.259 122.113 74.5552 122.584C73.8589 123.049 73.084 123.281 72.2305 123.281C71.1374 123.281 70.2726 122.974 69.6362 122.36C68.9998 121.746 68.6816 120.971 68.6816 120.035C68.6816 118.029 70.0106 116.816 72.6685 116.396L76.2061 115.869C76.2061 113.398 75.2777 112.163 73.4209 112.163C72.1556 112.163 70.924 112.672 69.7261 113.69V112.443C70.1528 112.106 70.7293 111.818 71.4556 111.579C72.1893 111.339 72.8781 111.219 73.522 111.219C74.7049 111.219 75.6183 111.586 76.2622 112.32C76.9136 113.054 77.2393 114.12 77.2393 115.521V123H76.2061ZM73.0391 117.272C71.8337 117.445 70.9876 117.725 70.501 118.115C70.0143 118.497 69.771 119.122 69.771 119.99C69.771 120.672 69.9956 121.233 70.4448 121.675C70.9015 122.117 71.5342 122.337 72.3428 122.337C73.4508 122.337 74.3717 121.929 75.1055 121.113C75.8392 120.29 76.2061 119.23 76.2061 117.935V116.812L73.0391 117.272ZM80.6982 123V105.975H81.7314V123H80.6982ZM85.6621 117.295C85.6621 118.875 86.0252 120.11 86.7515 121.001C87.4852 121.892 88.4884 122.337 89.7612 122.337C91.049 122.337 92.3068 121.862 93.5347 120.911V122.012C92.3442 122.858 91.0153 123.281 89.5479 123.281C88.0654 123.281 86.8675 122.749 85.9541 121.686C85.0407 120.623 84.584 119.122 84.584 117.183C84.584 115.506 85.0594 114.094 86.0103 112.949C86.9686 111.796 88.2114 111.219 89.7388 111.219C91.1688 111.219 92.2656 111.721 93.0293 112.724C93.793 113.727 94.1748 115.097 94.1748 116.834V117.295H85.6621ZM93.0967 116.352C93.0518 115.026 92.7336 113.997 92.1421 113.263C91.5506 112.529 90.7345 112.163 89.6938 112.163C88.6157 112.163 87.721 112.526 87.0098 113.252C86.306 113.971 85.8717 115.004 85.707 116.352H93.0967ZM96.4321 122.495V121.248C96.8215 121.585 97.2931 121.851 97.8472 122.045C98.4012 122.24 98.8804 122.337 99.2847 122.337C101.089 122.337 101.991 121.6 101.991 120.125C101.991 119.616 101.793 119.182 101.396 118.822C100.999 118.463 100.355 118.092 99.4644 117.71C98.3638 117.231 97.5889 116.737 97.1396 116.228C96.6979 115.711 96.4771 115.086 96.4771 114.353C96.4771 113.417 96.8327 112.66 97.5439 112.084C98.2627 111.507 99.1462 111.219 100.194 111.219C101.183 111.219 102.029 111.421 102.732 111.826V112.994C101.879 112.44 100.995 112.163 100.082 112.163C99.3258 112.163 98.7157 112.361 98.2515 112.758C97.7873 113.147 97.5552 113.656 97.5552 114.285C97.5552 114.832 97.7012 115.277 97.9932 115.622C98.2852 115.958 98.929 116.348 99.9248 116.79C101.123 117.329 101.946 117.83 102.396 118.294C102.845 118.751 103.069 119.361 103.069 120.125C103.069 121.038 102.725 121.795 102.036 122.394C101.355 122.985 100.411 123.281 99.2061 123.281C98.098 123.281 97.1733 123.019 96.4321 122.495Z" fill="white"/>
<path d="M16.561 274.427V273.158C17.714 273.892 18.882 274.259 20.0649 274.259C21.3228 274.259 22.2773 274 22.9287 273.484C23.5801 272.96 23.9058 272.23 23.9058 271.294C23.9058 270.47 23.6849 269.815 23.2432 269.329C22.8089 268.834 21.8618 268.164 20.4019 267.318C18.7697 266.368 17.7365 265.574 17.3022 264.938C16.868 264.294 16.6509 263.552 16.6509 262.714C16.6509 261.576 17.0926 260.61 17.9761 259.816C18.8595 259.023 20.0387 258.626 21.5137 258.626C22.472 258.626 23.4303 258.787 24.3887 259.109V260.277C23.4453 259.85 22.4383 259.637 21.3677 259.637C20.2746 259.637 19.4061 259.914 18.7622 260.468C18.1258 261.022 17.8076 261.726 17.8076 262.579C17.8076 263.403 18.0247 264.058 18.459 264.544C18.9007 265.031 19.8478 265.694 21.3003 266.532C22.8052 267.386 23.8047 268.146 24.2988 268.812C24.8005 269.471 25.0513 270.231 25.0513 271.092C25.0513 272.327 24.6208 273.334 23.7598 274.113C22.9062 274.891 21.6971 275.281 20.1323 275.281C19.5783 275.281 18.9382 275.195 18.2119 275.022C17.4932 274.85 16.9429 274.652 16.561 274.427ZM35.1475 275V272.698H35.1025C34.7357 273.484 34.2004 274.113 33.4966 274.584C32.8003 275.049 32.0254 275.281 31.1719 275.281C30.0788 275.281 29.214 274.974 28.5776 274.36C27.9412 273.746 27.623 272.971 27.623 272.035C27.623 270.029 28.952 268.816 31.6099 268.396L35.1475 267.869C35.1475 265.398 34.2191 264.163 32.3623 264.163C31.097 264.163 29.8654 264.672 28.6675 265.69V264.443C29.0942 264.106 29.6707 263.818 30.397 263.579C31.1307 263.339 31.8195 263.219 32.4634 263.219C33.6463 263.219 34.5597 263.586 35.2036 264.32C35.855 265.054 36.1807 266.12 36.1807 267.521V275H35.1475ZM31.9805 269.272C30.7751 269.445 29.929 269.725 29.4424 270.115C28.9557 270.497 28.7124 271.122 28.7124 271.99C28.7124 272.672 28.937 273.233 29.3862 273.675C29.8429 274.117 30.4756 274.337 31.2842 274.337C32.3923 274.337 33.3132 273.929 34.0469 273.113C34.7806 272.29 35.1475 271.23 35.1475 269.935V268.812L31.9805 269.272ZM39.6396 275V257.975H40.6729V275H39.6396ZM44.6035 269.295C44.6035 270.875 44.9666 272.11 45.6929 273.001C46.4266 273.892 47.4299 274.337 48.7026 274.337C49.9904 274.337 51.2482 273.862 52.4761 272.911V274.012C51.2856 274.858 49.9567 275.281 48.4893 275.281C47.0068 275.281 45.8089 274.749 44.8955 273.686C43.9821 272.623 43.5254 271.122 43.5254 269.183C43.5254 267.506 44.0008 266.094 44.9517 264.949C45.91 263.796 47.1528 263.219 48.6802 263.219C50.1102 263.219 51.207 263.721 51.9707 264.724C52.7344 265.727 53.1162 267.097 53.1162 268.834V269.295H44.6035ZM52.0381 268.352C51.9932 267.026 51.675 265.997 51.0835 265.263C50.492 264.529 49.6759 264.163 48.6353 264.163C47.5571 264.163 46.6624 264.526 45.9512 265.252C45.2474 265.971 44.8132 267.004 44.6484 268.352H52.0381ZM55.3735 274.495V273.248C55.7629 273.585 56.2345 273.851 56.7886 274.045C57.3426 274.24 57.8218 274.337 58.2261 274.337C60.0304 274.337 60.9326 273.6 60.9326 272.125C60.9326 271.616 60.7342 271.182 60.3374 270.822C59.9406 270.463 59.2967 270.092 58.4058 269.71C57.3052 269.231 56.5303 268.737 56.0811 268.228C55.6393 267.711 55.4185 267.086 55.4185 266.353C55.4185 265.417 55.7741 264.66 56.4854 264.084C57.2041 263.507 58.0876 263.219 59.1357 263.219C60.124 263.219 60.9701 263.421 61.6738 263.826V264.994C60.8203 264.44 59.9368 264.163 59.0234 264.163C58.2673 264.163 57.6571 264.361 57.1929 264.758C56.7287 265.147 56.4966 265.656 56.4966 266.285C56.4966 266.832 56.6426 267.277 56.9346 267.622C57.2266 267.958 57.8704 268.348 58.8662 268.79C60.0641 269.329 60.8877 269.83 61.3369 270.294C61.7861 270.751 62.0107 271.361 62.0107 272.125C62.0107 273.038 61.6663 273.795 60.9775 274.394C60.2962 274.985 59.3529 275.281 58.1475 275.281C57.0394 275.281 56.1147 275.019 55.3735 274.495ZM78.0703 275.281C75.7943 275.281 73.9787 274.525 72.6235 273.012C71.2759 271.5 70.6021 269.535 70.6021 267.116C70.6021 264.548 71.2946 262.493 72.6797 260.951C74.0723 259.401 75.9702 258.626 78.3735 258.626C80.5448 258.626 82.3005 259.371 83.6406 260.861C84.9883 262.343 85.6621 264.29 85.6621 266.701C85.6621 269.366 84.9733 271.462 83.5957 272.99C82.2181 274.517 80.3763 275.281 78.0703 275.281ZM78.1826 259.637C76.3109 259.637 74.7686 260.314 73.5557 261.669C72.3503 263.025 71.7476 264.799 71.7476 266.993C71.7476 269.209 72.3203 270.976 73.4658 272.293C74.6113 273.604 76.1387 274.259 78.0479 274.259C80.0394 274.259 81.6154 273.611 82.7759 272.316C83.9364 271.013 84.5166 269.201 84.5166 266.88C84.5166 264.604 83.9476 262.83 82.8096 261.557C81.679 260.277 80.1367 259.637 78.1826 259.637ZM94.1636 264.578C93.8192 264.331 93.4149 264.208 92.9507 264.208C92.0448 264.208 91.2848 264.675 90.6709 265.611C90.057 266.547 89.75 267.876 89.75 269.598V275H88.7393V263.5H89.75V266.049H89.7949C90.057 265.173 90.4725 264.492 91.0415 264.005C91.6105 263.519 92.2694 263.275 93.0181 263.275C93.4448 263.275 93.8267 263.343 94.1636 263.478V264.578ZM104.024 275V272.911H103.979C103.605 273.637 103.051 274.214 102.317 274.641C101.583 275.067 100.756 275.281 99.835 275.281C98.4199 275.281 97.2632 274.764 96.3647 273.731C95.4738 272.698 95.0283 271.271 95.0283 269.452C95.0283 267.595 95.515 266.094 96.4883 264.949C97.4691 263.796 98.7381 263.219 100.295 263.219C102.017 263.219 103.245 263.927 103.979 265.342H104.024V257.975H105.057V275H104.024ZM104.024 268.003C104.024 266.933 103.683 266.027 103.002 265.286C102.328 264.537 101.418 264.163 100.273 264.163C99.0675 264.163 98.0718 264.627 97.2856 265.555C96.4995 266.476 96.1064 267.745 96.1064 269.362C96.1064 270.95 96.4583 272.177 97.1621 273.046C97.8734 273.907 98.7868 274.337 99.9023 274.337C101.213 274.337 102.227 273.933 102.946 273.125C103.665 272.308 104.024 271.316 104.024 270.148V268.003ZM108.999 269.295C108.999 270.875 109.362 272.11 110.088 273.001C110.822 273.892 111.825 274.337 113.098 274.337C114.386 274.337 115.644 273.862 116.872 272.911V274.012C115.681 274.858 114.352 275.281 112.885 275.281C111.402 275.281 110.204 274.749 109.291 273.686C108.378 272.623 107.921 271.122 107.921 269.183C107.921 267.506 108.396 266.094 109.347 264.949C110.306 263.796 111.548 263.219 113.076 263.219C114.506 263.219 115.603 263.721 116.366 264.724C117.13 265.727 117.512 267.097 117.512 268.834V269.295H108.999ZM116.434 268.352C116.389 267.026 116.07 265.997 115.479 265.263C114.888 264.529 114.071 264.163 113.031 264.163C111.953 264.163 111.058 264.526 110.347 265.252C109.643 265.971 109.209 267.004 109.044 268.352H116.434ZM125.789 264.578C125.444 264.331 125.04 264.208 124.576 264.208C123.67 264.208 122.91 264.675 122.296 265.611C121.682 266.547 121.375 267.876 121.375 269.598V275H120.364V263.5H121.375V266.049H121.42C121.682 265.173 122.097 264.492 122.667 264.005C123.236 263.519 123.894 263.275 124.643 263.275C125.07 263.275 125.452 263.343 125.789 263.478V264.578ZM127.585 274.495V273.248C127.975 273.585 128.446 273.851 129 274.045C129.555 274.24 130.034 274.337 130.438 274.337C132.242 274.337 133.145 273.6 133.145 272.125C133.145 271.616 132.946 271.182 132.549 270.822C132.153 270.463 131.509 270.092 130.618 269.71C129.517 269.231 128.742 268.737 128.293 268.228C127.851 267.711 127.63 267.086 127.63 266.353C127.63 265.417 127.986 264.66 128.697 264.084C129.416 263.507 130.299 263.219 131.348 263.219C132.336 263.219 133.182 263.421 133.886 263.826V264.994C133.032 264.44 132.149 264.163 131.235 264.163C130.479 264.163 129.869 264.361 129.405 264.758C128.941 265.147 128.708 265.656 128.708 266.285C128.708 266.832 128.854 267.277 129.146 267.622C129.438 267.958 130.082 268.348 131.078 268.79C132.276 269.329 133.1 269.83 133.549 270.294C133.998 270.751 134.223 271.361 134.223 272.125C134.223 273.038 133.878 273.795 133.189 274.394C132.508 274.985 131.565 275.281 130.359 275.281C129.251 275.281 128.327 275.019 127.585 274.495Z" fill="white"/>
<path d="M16.0664 490V473.896H20.0981C22.771 473.896 24.8037 474.562 26.1963 475.895C27.5889 477.227 28.2852 479.17 28.2852 481.723C28.2852 484.179 27.5365 486.174 26.0391 487.709C24.5492 489.236 22.4902 490 19.8623 490H16.0664ZM17.1782 474.917V488.989H19.7051C22.0934 488.989 23.9277 488.372 25.208 487.136C26.4883 485.893 27.1284 484.104 27.1284 481.768C27.1284 477.201 24.7288 474.917 19.9297 474.917H17.1782ZM31.8452 475.603C31.6206 475.603 31.4222 475.52 31.25 475.355C31.0778 475.191 30.9917 474.981 30.9917 474.727C30.9917 474.479 31.0778 474.281 31.25 474.131C31.4297 473.974 31.6281 473.896 31.8452 473.896C32.0773 473.896 32.2795 473.97 32.4517 474.12C32.6313 474.27 32.7212 474.472 32.7212 474.727C32.7212 474.966 32.6351 475.172 32.4629 475.344C32.2907 475.516 32.0848 475.603 31.8452 475.603ZM31.3398 490V478.5H32.373V490H31.3398ZM39.8301 490H38.8867L34.4395 478.5H35.5962L39.0215 487.653C39.1862 488.095 39.3022 488.495 39.3696 488.854H39.4146C39.5119 488.383 39.6204 487.997 39.7402 487.698L43.2778 478.5H44.4009L39.8301 490ZM46.9839 475.603C46.7593 475.603 46.5609 475.52 46.3887 475.355C46.2165 475.191 46.1304 474.981 46.1304 474.727C46.1304 474.479 46.2165 474.281 46.3887 474.131C46.5684 473.974 46.7668 473.896 46.9839 473.896C47.216 473.896 47.4181 473.97 47.5903 474.12C47.77 474.27 47.8599 474.472 47.8599 474.727C47.8599 474.966 47.7738 475.172 47.6016 475.344C47.4294 475.516 47.2235 475.603 46.9839 475.603ZM46.4785 490V478.5H47.5117V490H46.4785ZM50.6001 489.495V488.248C50.9894 488.585 51.4611 488.851 52.0151 489.045C52.5692 489.24 53.0483 489.337 53.4526 489.337C55.257 489.337 56.1592 488.6 56.1592 487.125C56.1592 486.616 55.9608 486.182 55.564 485.822C55.1672 485.463 54.5233 485.092 53.6323 484.71C52.5317 484.231 51.7568 483.737 51.3076 483.228C50.8659 482.711 50.645 482.086 50.645 481.353C50.645 480.417 51.0007 479.66 51.7119 479.084C52.4307 478.507 53.3141 478.219 54.3623 478.219C55.3506 478.219 56.1966 478.421 56.9004 478.826V479.994C56.0469 479.44 55.1634 479.163 54.25 479.163C53.4938 479.163 52.8836 479.361 52.4194 479.758C51.9552 480.147 51.7231 480.656 51.7231 481.285C51.7231 481.832 51.8691 482.277 52.1611 482.622C52.4531 482.958 53.097 483.348 54.0928 483.79C55.2907 484.329 56.1143 484.83 56.5635 485.294C57.0127 485.751 57.2373 486.361 57.2373 487.125C57.2373 488.038 56.8929 488.795 56.2041 489.394C55.5228 489.985 54.5794 490.281 53.374 490.281C52.266 490.281 51.3413 490.019 50.6001 489.495ZM60.6401 475.603C60.4155 475.603 60.2171 475.52 60.0449 475.355C59.8727 475.191 59.7866 474.981 59.7866 474.727C59.7866 474.479 59.8727 474.281 60.0449 474.131C60.2246 473.974 60.423 473.896 60.6401 473.896C60.8722 473.896 61.0744 473.97 61.2466 474.12C61.4263 474.27 61.5161 474.472 61.5161 474.727C61.5161 474.966 61.43 475.172 61.2578 475.344C61.0856 475.516 60.8797 475.603 60.6401 475.603ZM60.1348 490V478.5H61.168V490H60.1348ZM69.4673 490.281C67.7902 490.281 66.4613 489.73 65.4805 488.63C64.5072 487.522 64.0205 486.084 64.0205 484.317C64.0205 482.408 64.5296 480.915 65.5479 479.836C66.5736 478.758 67.9212 478.219 69.5908 478.219C71.2305 478.219 72.5257 478.755 73.4766 479.825C74.4274 480.896 74.9028 482.378 74.9028 484.272C74.9028 486.062 74.4162 487.511 73.4429 488.619C72.4771 489.727 71.1519 490.281 69.4673 490.281ZM69.5459 479.163C68.1908 479.163 67.1089 479.619 66.3003 480.533C65.4992 481.446 65.0986 482.715 65.0986 484.34C65.0986 485.845 65.4917 487.054 66.2778 487.967C67.064 488.881 68.1383 489.337 69.501 489.337C70.8861 489.337 71.953 488.888 72.7017 487.99C73.4504 487.091 73.8247 485.845 73.8247 484.25C73.8247 482.61 73.4504 481.353 72.7017 480.477C71.9604 479.601 70.9085 479.163 69.5459 479.163ZM85.583 490V483.307C85.583 480.544 84.5872 479.163 82.5957 479.163C81.4876 479.163 80.578 479.571 79.8667 480.387C79.1554 481.195 78.7998 482.199 78.7998 483.396V490H77.7666V478.5H78.7998V480.589H78.8447C79.6833 479.009 80.9935 478.219 82.7754 478.219C84.0182 478.219 84.9691 478.635 85.6279 479.466C86.2868 480.289 86.6162 481.469 86.6162 483.003V490H85.583ZM89.48 489.495V488.248C89.8693 488.585 90.341 488.851 90.895 489.045C91.4491 489.24 91.9282 489.337 92.3325 489.337C94.1369 489.337 95.0391 488.6 95.0391 487.125C95.0391 486.616 94.8407 486.182 94.4438 485.822C94.047 485.463 93.4032 485.092 92.5122 484.71C91.4116 484.231 90.6367 483.737 90.1875 483.228C89.7458 482.711 89.5249 482.086 89.5249 481.353C89.5249 480.417 89.8805 479.66 90.5918 479.084C91.3105 478.507 92.194 478.219 93.2422 478.219C94.2305 478.219 95.0765 478.421 95.7803 478.826V479.994C94.9268 479.44 94.0433 479.163 93.1299 479.163C92.3737 479.163 91.7635 479.361 91.2993 479.758C90.8351 480.147 90.603 480.656 90.603 481.285C90.603 481.832 90.749 482.277 91.041 482.622C91.333 482.958 91.9769 483.348 92.9727 483.79C94.1706 484.329 94.9941 484.83 95.4434 485.294C95.8926 485.751 96.1172 486.361 96.1172 487.125C96.1172 488.038 95.7728 488.795 95.084 489.394C94.4027 489.985 93.4593 490.281 92.2539 490.281C91.1458 490.281 90.2212 490.019 89.48 489.495ZM104.192 492.673H103.159L110.941 473.896H112.02L104.192 492.673ZM120.285 490V473.896H124.519C125.784 473.896 126.791 474.236 127.54 474.917C128.289 475.599 128.663 476.501 128.663 477.624C128.663 478.56 128.412 479.372 127.911 480.061C127.417 480.742 126.724 481.225 125.833 481.51V481.555C126.949 481.66 127.828 482.06 128.472 482.756C129.116 483.445 129.438 484.325 129.438 485.396C129.438 486.751 129 487.859 128.124 488.72C127.248 489.573 126.076 490 124.609 490H120.285ZM121.397 474.917V481.15H123.643C124.811 481.15 125.747 480.851 126.451 480.252C127.154 479.653 127.506 478.841 127.506 477.815C127.506 475.883 126.365 474.917 124.081 474.917H121.397ZM121.397 482.161V488.989H124.384C125.65 488.989 126.615 488.686 127.282 488.08C127.956 487.473 128.292 486.612 128.292 485.497C128.292 483.273 126.784 482.161 123.767 482.161H121.397ZM137.996 479.578C137.651 479.331 137.247 479.208 136.783 479.208C135.877 479.208 135.117 479.675 134.503 480.611C133.889 481.547 133.582 482.876 133.582 484.598V490H132.571V478.5H133.582V481.049H133.627C133.889 480.173 134.305 479.492 134.874 479.005C135.443 478.519 136.101 478.275 136.85 478.275C137.277 478.275 137.659 478.343 137.996 478.478V479.578ZM147.036 490V487.698H146.991C146.624 488.484 146.089 489.113 145.385 489.584C144.689 490.049 143.914 490.281 143.061 490.281C141.967 490.281 141.103 489.974 140.466 489.36C139.83 488.746 139.512 487.971 139.512 487.035C139.512 485.029 140.841 483.816 143.499 483.396L147.036 482.869C147.036 480.398 146.108 479.163 144.251 479.163C142.986 479.163 141.754 479.672 140.556 480.69V479.443C140.983 479.106 141.559 478.818 142.286 478.579C143.019 478.339 143.708 478.219 144.352 478.219C145.535 478.219 146.448 478.586 147.092 479.32C147.744 480.054 148.069 481.12 148.069 482.521V490H147.036ZM143.869 484.272C142.664 484.445 141.818 484.725 141.331 485.115C140.844 485.497 140.601 486.122 140.601 486.99C140.601 487.672 140.826 488.233 141.275 488.675C141.732 489.117 142.364 489.337 143.173 489.337C144.281 489.337 145.202 488.929 145.936 488.113C146.669 487.29 147.036 486.23 147.036 484.935V483.812L143.869 484.272ZM159.345 490V483.307C159.345 480.544 158.349 479.163 156.357 479.163C155.249 479.163 154.34 479.571 153.628 480.387C152.917 481.195 152.562 482.199 152.562 483.396V490H151.528V478.5H152.562V480.589H152.606C153.445 479.009 154.755 478.219 156.537 478.219C157.78 478.219 158.731 478.635 159.39 479.466C160.049 480.289 160.378 481.469 160.378 483.003V490H159.345ZM171.283 489.495C170.429 490.019 169.411 490.281 168.228 490.281C166.663 490.281 165.402 489.745 164.443 488.675C163.485 487.597 163.006 486.189 163.006 484.452C163.006 482.625 163.545 481.132 164.623 479.971C165.701 478.803 167.086 478.219 168.778 478.219C169.654 478.219 170.504 478.399 171.328 478.758V479.926C170.504 479.417 169.602 479.163 168.621 479.163C167.273 479.163 166.18 479.649 165.342 480.623C164.503 481.588 164.084 482.842 164.084 484.385C164.084 485.875 164.466 487.073 165.229 487.979C166.001 488.884 167.015 489.337 168.273 489.337C169.426 489.337 170.429 489.03 171.283 488.417V489.495ZM181.873 490V483.104C181.873 481.742 181.626 480.746 181.132 480.117C180.638 479.481 179.867 479.163 178.818 479.163C177.83 479.163 176.962 479.548 176.213 480.319C175.464 481.09 175.09 482.195 175.09 483.632V490H174.057V472.975H175.09V480.566H175.135C176.041 479.002 177.358 478.219 179.088 478.219C180.331 478.219 181.278 478.62 181.929 479.421C182.581 480.222 182.906 481.371 182.906 482.869V490H181.873Z" fill="white"/>
<path d="M1263.53 28H1235.74C1235.28 28 1234.83 28.183 1234.51 28.5087C1234.18 28.8344 1234 29.2762 1234 29.7369V34.2353C1234 35.1437 1234.37 36.0364 1235.01 36.6791L1244.42 46.0876V59.2634C1244.42 59.5593 1244.5 59.8502 1244.64 60.1086C1244.79 60.367 1244.99 60.5844 1245.25 60.74C1245.5 60.8957 1245.78 60.9845 1246.08 60.9982C1246.38 61.0118 1246.67 60.9497 1246.93 60.8179L1253.88 57.3442C1254.47 57.0489 1254.84 56.448 1254.84 55.7897V46.0876L1264.25 36.6791C1264.89 36.0364 1265.26 35.1437 1265.26 34.2353V29.7369C1265.26 29.2762 1265.08 28.8344 1264.75 28.5087C1264.43 28.183 1263.99 28 1263.53 28V28ZM1251.88 44.1406C1251.72 44.3016 1251.59 44.493 1251.5 44.7038C1251.41 44.9145 1251.37 45.1404 1251.37 45.3686V54.7163L1247.89 56.4532V45.3686C1247.9 45.1404 1247.85 44.9145 1247.76 44.7038C1247.68 44.493 1247.55 44.3016 1247.39 44.1406L1237.47 34.2353V31.4737H1261.79L1261.79 34.2232L1251.88 44.1406V44.1406Z" fill="#140A9A"/>
<rect x="2.5" y="2.5" width="1275" height="715" stroke="#140A9A" stroke-width="5"/>
<path d="M653.5 104.981L654 170.481L654.5 235.981" stroke="url(#paint6_linear_4_19)" stroke-width="5"/>
<path d="M214 16L214.5 51L215 86" stroke="url(#paint7_linear_4_19)" stroke-width="5"/>
<line x1="871.5" y1="104.981" x2="872.5" y2="235.981" stroke="url(#paint8_linear_4_19)" stroke-width="5"/>
<line x1="1078.5" y1="104.981" x2="1079.5" y2="235.981" stroke="url(#paint9_linear_4_19)" stroke-width="5"/>
<path d="M227.196 61.3286V57.4224C227.904 58.0164 228.673 58.464 229.503 58.7651C230.333 59.0581 231.172 59.2046 232.018 59.2046C232.514 59.2046 232.946 59.1598 233.312 59.0703C233.686 58.9808 233.996 58.8587 234.24 58.7041C234.492 58.5413 234.679 58.3542 234.801 58.1426C234.923 57.9229 234.984 57.6868 234.984 57.4346C234.984 57.0928 234.887 56.7876 234.691 56.519C234.496 56.2505 234.228 56.0023 233.886 55.7744C233.552 55.5465 233.153 55.3268 232.689 55.1152C232.226 54.9036 231.725 54.688 231.188 54.4683C229.821 53.8986 228.799 53.2028 228.124 52.3809C227.457 51.5589 227.123 50.5661 227.123 49.4023C227.123 48.4909 227.306 47.7096 227.672 47.0586C228.039 46.3994 228.535 45.8582 229.162 45.4351C229.796 45.0119 230.529 44.7026 231.359 44.5073C232.189 44.3039 233.068 44.2021 233.996 44.2021C234.907 44.2021 235.713 44.2591 236.413 44.373C237.121 44.4788 237.772 44.6457 238.366 44.8735V48.5234C238.073 48.32 237.751 48.141 237.401 47.9863C237.06 47.8317 236.706 47.7056 236.339 47.6079C235.973 47.5021 235.607 47.4248 235.241 47.376C234.883 47.3271 234.541 47.3027 234.215 47.3027C233.768 47.3027 233.361 47.3475 232.995 47.437C232.628 47.5184 232.319 47.6364 232.067 47.791C231.815 47.9456 231.619 48.1328 231.481 48.3525C231.343 48.5641 231.273 48.8042 231.273 49.0728C231.273 49.3657 231.351 49.6302 231.505 49.8662C231.66 50.0941 231.88 50.3138 232.165 50.5254C232.449 50.7288 232.795 50.9323 233.202 51.1357C233.609 51.3311 234.069 51.5345 234.582 51.7461C235.281 52.0391 235.908 52.3524 236.461 52.686C237.023 53.0116 237.503 53.3818 237.902 53.7969C238.301 54.2119 238.606 54.688 238.817 55.2251C239.029 55.7541 239.135 56.3726 239.135 57.0806C239.135 58.0571 238.948 58.8791 238.573 59.5464C238.207 60.2056 237.707 60.7427 237.072 61.1577C236.437 61.5646 235.696 61.8576 234.85 62.0366C234.012 62.2157 233.125 62.3052 232.189 62.3052C231.229 62.3052 230.313 62.2238 229.442 62.061C228.58 61.8983 227.831 61.6541 227.196 61.3286ZM257.409 62H253.112L251.867 58.106H245.641L244.408 62H240.136L246.508 44.4951H251.183L257.409 62ZM250.963 55.0786L249.083 49.1948C248.945 48.7554 248.847 48.2305 248.791 47.6201H248.693C248.652 48.1328 248.55 48.6414 248.388 49.146L246.483 55.0786H250.963ZM270.019 62H259.594V44.4951H263.537V58.8018H270.019V62ZM282.885 62H272.387V44.4951H282.482V47.7056H276.33V51.5996H282.055V54.7979H276.33V58.8018H282.885V62ZM284.887 61.3286V57.4224C285.595 58.0164 286.364 58.464 287.194 58.7651C288.024 59.0581 288.862 59.2046 289.708 59.2046C290.205 59.2046 290.636 59.1598 291.002 59.0703C291.377 58.9808 291.686 58.8587 291.93 58.7041C292.182 58.5413 292.37 58.3542 292.492 58.1426C292.614 57.9229 292.675 57.6868 292.675 57.4346C292.675 57.0928 292.577 56.7876 292.382 56.519C292.187 56.2505 291.918 56.0023 291.576 55.7744C291.243 55.5465 290.844 55.3268 290.38 55.1152C289.916 54.9036 289.416 54.688 288.878 54.4683C287.511 53.8986 286.49 53.2028 285.814 52.3809C285.147 51.5589 284.813 50.5661 284.813 49.4023C284.813 48.4909 284.997 47.7096 285.363 47.0586C285.729 46.3994 286.225 45.8582 286.852 45.4351C287.487 45.0119 288.219 44.7026 289.049 44.5073C289.879 44.3039 290.758 44.2021 291.686 44.2021C292.597 44.2021 293.403 44.2591 294.103 44.373C294.811 44.4788 295.462 44.6457 296.056 44.8735V48.5234C295.763 48.32 295.442 48.141 295.092 47.9863C294.75 47.8317 294.396 47.7056 294.03 47.6079C293.664 47.5021 293.297 47.4248 292.931 47.376C292.573 47.3271 292.231 47.3027 291.906 47.3027C291.458 47.3027 291.051 47.3475 290.685 47.437C290.319 47.5184 290.01 47.6364 289.757 47.791C289.505 47.9456 289.31 48.1328 289.171 48.3525C289.033 48.5641 288.964 48.8042 288.964 49.0728C288.964 49.3657 289.041 49.6302 289.196 49.8662C289.35 50.0941 289.57 50.3138 289.855 50.5254C290.14 50.7288 290.486 50.9323 290.893 51.1357C291.299 51.3311 291.759 51.5345 292.272 51.7461C292.972 52.0391 293.598 52.3524 294.152 52.686C294.713 53.0116 295.194 53.3818 295.592 53.7969C295.991 54.2119 296.296 54.688 296.508 55.2251C296.719 55.7541 296.825 56.3726 296.825 57.0806C296.825 58.0571 296.638 58.8791 296.264 59.5464C295.897 60.2056 295.397 60.7427 294.762 61.1577C294.127 61.5646 293.387 61.8576 292.541 62.0366C291.702 62.2157 290.815 62.3052 289.879 62.3052C288.919 62.3052 288.004 62.2238 287.133 62.061C286.27 61.8983 285.521 61.6541 284.887 61.3286ZM308.068 54.981V62H306.859V44.4951H311.083C312.882 44.4951 314.257 44.9142 315.209 45.7524C316.161 46.5825 316.637 47.7992 316.637 49.4023C316.637 51.0299 316.104 52.3687 315.038 53.4185C313.98 54.4601 312.495 54.981 310.583 54.981H308.068ZM308.068 45.606V53.8701H310.558C312.137 53.8701 313.337 53.4958 314.159 52.7471C314.981 51.9902 315.392 50.9242 315.392 49.5488C315.392 46.9202 313.882 45.606 310.863 45.606H308.068ZM320.458 62V44.4951H328.637V45.606H321.667V52.625H328.136V53.7236H321.667V60.9014H329.04V62H320.458ZM341.918 62L339.586 56.873C339.106 55.8151 338.626 55.1071 338.146 54.749C337.666 54.3828 337.064 54.1997 336.339 54.1997H334.167V62H332.958V44.4951H337.816C339.363 44.4951 340.575 44.9142 341.454 45.7524C342.341 46.5825 342.785 47.6812 342.785 49.0483C342.785 50.3097 342.423 51.3636 341.698 52.21C340.974 53.0563 339.961 53.6016 338.659 53.8457V53.8945C339.35 54.1712 340.026 55.0135 340.685 56.4214L343.285 62H341.918ZM334.167 45.606V53.1011H337.182C338.516 53.1011 339.574 52.7511 340.355 52.0513C341.145 51.3514 341.54 50.3911 341.54 49.1704C341.54 48.0555 341.186 47.1847 340.478 46.5581C339.77 45.9233 338.756 45.606 337.438 45.606H334.167ZM348.058 45.606V52.7471H354.528V53.8457H348.058V62H346.85V44.4951H355.028V45.606H348.058ZM365.673 62.3052C363.199 62.3052 361.225 61.4832 359.752 59.8394C358.288 58.1955 357.555 56.0592 357.555 53.4307C357.555 50.6393 358.308 48.4054 359.813 46.729C361.327 45.0444 363.39 44.2021 366.002 44.2021C368.362 44.2021 370.271 45.0119 371.728 46.6313C373.192 48.2427 373.925 50.3586 373.925 52.979C373.925 55.8761 373.176 58.1548 371.679 59.8149C370.181 61.4751 368.179 62.3052 365.673 62.3052ZM365.795 45.3008C363.76 45.3008 362.084 46.0373 360.766 47.5103C359.455 48.9832 358.8 50.9119 358.8 53.2964C358.8 55.7052 359.423 57.6258 360.668 59.0581C361.913 60.4823 363.573 61.1943 365.648 61.1943C367.813 61.1943 369.526 60.4904 370.788 59.0825C372.049 57.6665 372.68 55.6971 372.68 53.1743C372.68 50.7004 372.061 48.7716 370.824 47.3882C369.595 45.9966 367.919 45.3008 365.795 45.3008ZM386.474 62L384.142 56.873C383.662 55.8151 383.182 55.1071 382.702 54.749C382.222 54.3828 381.619 54.1997 380.895 54.1997H378.722V62H377.514V44.4951H382.372C383.918 44.4951 385.131 44.9142 386.01 45.7524C386.897 46.5825 387.34 47.6812 387.34 49.0483C387.34 50.3097 386.978 51.3636 386.254 52.21C385.53 53.0563 384.516 53.6016 383.214 53.8457V53.8945C383.906 54.1712 384.582 55.0135 385.241 56.4214L387.841 62H386.474ZM378.722 45.606V53.1011H381.737C383.072 53.1011 384.13 52.7511 384.911 52.0513C385.701 51.3514 386.095 50.3911 386.095 49.1704C386.095 48.0555 385.741 47.1847 385.033 46.5581C384.325 45.9233 383.312 45.606 381.994 45.606H378.722ZM406.579 62V49.5732C406.579 49.2721 406.623 48.4136 406.713 46.9976H406.664C406.412 47.6567 406.2 48.1654 406.029 48.5234L399.804 62H399.413L393.163 48.5967C392.96 48.1654 392.768 47.616 392.589 46.9487H392.528C392.585 47.73 392.614 48.5072 392.614 49.2803V62H391.405V44.4951H392.528L399.059 58.5942C399.1 58.6756 399.145 58.7855 399.193 58.9238C399.242 59.0622 399.295 59.2005 399.352 59.3389C399.433 59.5505 399.519 59.7865 399.608 60.0469H399.682L399.816 59.6562C399.824 59.6237 399.962 59.2371 400.231 58.4966L406.664 44.4951H407.738V62H406.579ZM423.632 62L421.63 56.5557H414.037L412.035 62H410.705L417.309 44.4951H418.456L424.987 62H423.632ZM418.261 47.3516C418.171 47.1074 418.098 46.8674 418.041 46.6313C417.984 46.4279 417.923 46.2244 417.858 46.021H417.809C417.671 46.5581 417.536 46.9935 417.406 47.3271L414.464 55.4448H421.215L418.261 47.3516ZM440.331 62L429.906 47.8521C429.695 47.5672 429.507 47.2824 429.345 46.9976L429.186 46.7534H429.137C429.153 46.965 429.162 47.2214 429.162 47.5225V62H427.953V44.4951H428.881L439.232 58.521C439.46 58.8302 439.708 59.2046 439.977 59.644H440.038C439.997 59.0744 439.977 58.5861 439.977 58.1792V44.4951H441.186V62H440.331ZM457.311 61.4263C455.895 62.0122 454.418 62.3052 452.88 62.3052C450.487 62.3052 448.534 61.5036 447.021 59.9004C445.515 58.2891 444.762 56.1895 444.762 53.6016C444.762 50.7614 445.58 48.4868 447.216 46.7778C448.852 45.0607 450.931 44.2021 453.454 44.2021C454.796 44.2021 456.082 44.4178 457.311 44.8491V46.1309C456.082 45.5775 454.788 45.3008 453.429 45.3008C451.232 45.3008 449.446 46.0454 448.07 47.5347C446.695 49.0239 446.007 51.0055 446.007 53.4795C446.007 55.8639 446.662 57.7479 447.973 59.1313C449.291 60.5067 450.959 61.1943 452.978 61.1943C454.589 61.1943 456.033 60.881 457.311 60.2544V61.4263ZM461.205 62V44.4951H469.384V45.606H462.414V52.625H468.883V53.7236H462.414V60.9014H469.787V62H461.205Z" fill="#140A9A"/>
<defs>
<filter id="filter0_d_4_19" x="642" y="97" width="213" height="150" filterUnits="userSpaceOnUse" color-interpolation-filters="sRGB">
<feFlood flood-opacity="0" result="BackgroundImageFix"/>
<feColorMatrix in="SourceAlpha" type="matrix" values="0 0 0 0 0 0 0 0 0 0 0 0 0 0 0 0 0 0 127 0" result="hardAlpha"/>
<feOffset dy="2"/>
<feGaussianBlur stdDeviation="2"/>
<feComposite in2="hardAlpha" operator="out"/>
<feColorMatrix type="matrix" values="0 0 0 0 0 0 0 0 0 0 0 0 0 0 0 0 0 0 0.25 0"/>
<feBlend mode="normal" in2="BackgroundImageFix" result="effect1_dropShadow_4_19"/>
<feBlend mode="normal" in="SourceGraphic" in2="effect1_dropShadow_4_19" result="shape"/>
</filter>
<filter id="filter1_d_4_19" x="859" y="97" width="207" height="150" filterUnits="userSpaceOnUse" color-interpolation-filters="sRGB">
<feFlood flood-opacity="0" result="BackgroundImageFix"/>
<feColorMatrix in="SourceAlpha" type="matrix" values="0 0 0 0 0 0 0 0 0 0 0 0 0 0 0 0 0 0 127 0" result="hardAlpha"/>
<feOffset dy="2"/>
<feGaussianBlur stdDeviation="2"/>
<feComposite in2="hardAlpha" operator="out"/>
<feColorMatrix type="matrix" values="0 0 0 0 0 0 0 0 0 0 0 0 0 0 0 0 0 0 0.25 0"/>
<feBlend mode="normal" in2="BackgroundImageFix" result="effect1_dropShadow_4_19"/>
<feBlend mode="normal" in="SourceGraphic" in2="effect1_dropShadow_4_19" result="shape"/>
</filter>
<filter id="filter2_d_4_19" x="1067" y="97" width="207" height="150" filterUnits="userSpaceOnUse" color-interpolation-filters="sRGB">
<feFlood flood-opacity="0" result="BackgroundImageFix"/>
<feColorMatrix in="SourceAlpha" type="matrix" values="0 0 0 0 0 0 0 0 0 0 0 0 0 0 0 0 0 0 127 0" result="hardAlpha"/>
<feOffset dy="2"/>
<feGaussianBlur stdDeviation="2"/>
<feComposite in2="hardAlpha" operator="out"/>
<feColorMatrix type="matrix" values="0 0 0 0 0 0 0 0 0 0 0 0 0 0 0 0 0 0 0.25 0"/>
<feBlend mode="normal" in2="BackgroundImageFix" result="effect1_dropShadow_4_19"/>
<feBlend mode="normal" in="SourceGraphic" in2="effect1_dropShadow_4_19" result="shape"/>
</filter>
<filter id="filter3_d_4_19" x="10" y="95" width="632" height="37" filterUnits="userSpaceOnUse" color-interpolation-filters="sRGB">
<feFlood flood-opacity="0" result="BackgroundImageFix"/>
<feColorMatrix in="SourceAlpha" type="matrix" values="0 0 0 0 0 0 0 0 0 0 0 0 0 0 0 0 0 0 127 0" result="hardAlpha"/>
<feOffset/>
<feGaussianBlur stdDeviation="2"/>
<feComposite in2="hardAlpha" operator="out"/>
<feColorMatrix type="matrix" values="0 0 0 0 0 0 0 0 0 0 0 0 0 0 0 0 0 0 0.25 0"/>
<feBlend mode="normal" in2="BackgroundImageFix" result="effect1_dropShadow_4_19"/>
<feBlend mode="normal" in="SourceGraphic" in2="effect1_dropShadow_4_19" result="shape"/>
</filter>
<filter id="filter4_d_4_19" x="9" y="247" width="633" height="37" filterUnits="userSpaceOnUse" color-interpolation-filters="sRGB">
<feFlood flood-opacity="0" result="BackgroundImageFix"/>
<feColorMatrix in="SourceAlpha" type="matrix" values="0 0 0 0 0 0 0 0 0 0 0 0 0 0 0 0 0 0 127 0" result="hardAlpha"/>
<feOffset/>
<feGaussianBlur stdDeviation="2"/>
<feComposite in2="hardAlpha" operator="out"/>
<feColorMatrix type="matrix" values="0 0 0 0 0 0 0 0 0 0 0 0 0 0 0 0 0 0 0.25 0"/>
<feBlend mode="normal" in2="BackgroundImageFix" result="effect1_dropShadow_4_19"/>
<feBlend mode="normal" in="SourceGraphic" in2="effect1_dropShadow_4_19" result="shape"/>
</filter>
<filter id="filter5_d_4_19" x="10" y="462" width="632" height="37" filterUnits="userSpaceOnUse" color-interpolation-filters="sRGB">
<feFlood flood-opacity="0" result="BackgroundImageFix"/>
<feColorMatrix in="SourceAlpha" type="matrix" values="0 0 0 0 0 0 0 0 0 0 0 0 0 0 0 0 0 0 127 0" result="hardAlpha"/>
<feOffset/>
<feGaussianBlur stdDeviation="2"/>
<feComposite in2="hardAlpha" operator="out"/>
<feColorMatrix type="matrix" values="0 0 0 0 0 0 0 0 0 0 0 0 0 0 0 0 0 0 0.25 0"/>
<feBlend mode="normal" in2="BackgroundImageFix" result="effect1_dropShadow_4_19"/>
<feBlend mode="normal" in="SourceGraphic" in2="effect1_dropShadow_4_19" result="shape"/>
</filter>
<filter id="filter6_d_4_19" x="8" y="280" width="634" height="188" filterUnits="userSpaceOnUse" color-interpolation-filters="sRGB">
<feFlood flood-opacity="0" result="BackgroundImageFix"/>
<feColorMatrix in="SourceAlpha" type="matrix" values="0 0 0 0 0 0 0 0 0 0 0 0 0 0 0 0 0 0 127 0" result="hardAlpha"/>
<feOffset dy="4"/>
<feGaussianBlur stdDeviation="2"/>
<feComposite in2="hardAlpha" operator="out"/>
<feColorMatrix type="matrix" values="0 0 0 0 0 0 0 0 0 0 0 0 0 0 0 0 0 0 0.25 0"/>
<feBlend mode="normal" in2="BackgroundImageFix" result="effect1_dropShadow_4_19"/>
<feBlend mode="normal" in="SourceGraphic" in2="effect1_dropShadow_4_19" result="shape"/>
</filter>
<filter id="filter7_d_4_19" x="642" y="247" width="632" height="221" filterUnits="userSpaceOnUse" color-interpolation-filters="sRGB">
<feFlood flood-opacity="0" result="BackgroundImageFix"/>
<feColorMatrix in="SourceAlpha" type="matrix" values="0 0 0 0 0 0 0 0 0 0 0 0 0 0 0 0 0 0 127 0" result="hardAlpha"/>
<feOffset dy="4"/>
<feGaussianBlur stdDeviation="2"/>
<feComposite in2="hardAlpha" operator="out"/>
<feColorMatrix type="matrix" values="0 0 0 0 0 0 0 0 0 0 0 0 0 0 0 0 0 0 0.25 0"/>
<feBlend mode="normal" in2="BackgroundImageFix" result="effect1_dropShadow_4_19"/>
<feBlend mode="normal" in="SourceGraphic" in2="effect1_dropShadow_4_19" result="shape"/>
</filter>
<filter id="filter8_d_4_19" x="642" y="466" width="632" height="252" filterUnits="userSpaceOnUse" color-interpolation-filters="sRGB">
<feFlood flood-opacity="0" result="BackgroundImageFix"/>
<feColorMatrix in="SourceAlpha" type="matrix" values="0 0 0 0 0 0 0 0 0 0 0 0 0 0 0 0 0 0 127 0" result="hardAlpha"/>
<feOffset dy="4"/>
<feGaussianBlur stdDeviation="2"/>
<feComposite in2="hardAlpha" operator="out"/>
<feColorMatrix type="matrix" values="0 0 0 0 0 0 0 0 0 0 0 0 0 0 0 0 0 0 0.25 0"/>
<feBlend mode="normal" in2="BackgroundImageFix" result="effect1_dropShadow_4_19"/>
<feBlend mode="normal" in="SourceGraphic" in2="effect1_dropShadow_4_19" result="shape"/>
</filter>
<filter id="filter9_d_4_19" x="10" y="135" width="208" height="114" filterUnits="userSpaceOnUse" color-interpolation-filters="sRGB">
<feFlood flood-opacity="0" result="BackgroundImageFix"/>
<feColorMatrix in="SourceAlpha" type="matrix" values="0 0 0 0 0 0 0 0 0 0 0 0 0 0 0 0 0 0 127 0" result="hardAlpha"/>
<feOffset dy="4"/>
<feGaussianBlur stdDeviation="2"/>
<feComposite in2="hardAlpha" operator="out"/>
<feColorMatrix type="matrix" values="0 0 0 0 0 0 0 0 0 0 0 0 0 0 0 0 0 0 0.25 0"/>
<feBlend mode="normal" in2="BackgroundImageFix" result="effect1_dropShadow_4_19"/>
<feBlend mode="normal" in="SourceGraphic" in2="effect1_dropShadow_4_19" result="shape"/>
</filter>
<filter id="filter10_d_4_19" x="222" y="135" width="208" height="114" filterUnits="userSpaceOnUse" color-interpolation-filters="sRGB">
<feFlood flood-opacity="0" result="BackgroundImageFix"/>
<feColorMatrix in="SourceAlpha" type="matrix" values="0 0 0 0 0 0 0 0 0 0 0 0 0 0 0 0 0 0 127 0" result="hardAlpha"/>
<feOffset dy="4"/>
<feGaussianBlur stdDeviation="2"/>
<feComposite in2="hardAlpha" operator="out"/>
<feColorMatrix type="matrix" values="0 0 0 0 0 0 0 0 0 0 0 0 0 0 0 0 0 0 0.25 0"/>
<feBlend mode="normal" in2="BackgroundImageFix" result="effect1_dropShadow_4_19"/>
<feBlend mode="normal" in="SourceGraphic" in2="effect1_dropShadow_4_19" result="shape"/>
</filter>
<filter id="filter11_d_4_19" x="434" y="135" width="208" height="114" filterUnits="userSpaceOnUse" color-interpolation-filters="sRGB">
<feFlood flood-opacity="0" result="BackgroundImageFix"/>
<feColorMatrix in="SourceAlpha" type="matrix" values="0 0 0 0 0 0 0 0 0 0 0 0 0 0 0 0 0 0 127 0" result="hardAlpha"/>
<feOffset dy="4"/>
<feGaussianBlur stdDeviation="2"/>
<feComposite in2="hardAlpha" operator="out"/>
<feColorMatrix type="matrix" values="0 0 0 0 0 0 0 0 0 0 0 0 0 0 0 0 0 0 0.25 0"/>
<feBlend mode="normal" in2="BackgroundImageFix" result="effect1_dropShadow_4_19"/>
<feBlend mode="normal" in="SourceGraphic" in2="effect1_dropShadow_4_19" result="shape"/>
</filter>
<filter id="filter12_d_4_19" x="9" y="500" width="300" height="218" filterUnits="userSpaceOnUse" color-interpolation-filters="sRGB">
<feFlood flood-opacity="0" result="BackgroundImageFix"/>
<feColorMatrix in="SourceAlpha" type="matrix" values="0 0 0 0 0 0 0 0 0 0 0 0 0 0 0 0 0 0 127 0" result="hardAlpha"/>
<feOffset dy="4"/>
<feGaussianBlur stdDeviation="2"/>
<feComposite in2="hardAlpha" operator="out"/>
<feColorMatrix type="matrix" values="0 0 0 0 0 0 0 0 0 0 0 0 0 0 0 0 0 0 0.25 0"/>
<feBlend mode="normal" in2="BackgroundImageFix" result="effect1_dropShadow_4_19"/>
<feBlend mode="normal" in="SourceGraphic" in2="effect1_dropShadow_4_19" result="shape"/>
</filter>
<filter id="filter13_d_4_19" x="309" y="500" width="333" height="218" filterUnits="userSpaceOnUse" color-interpolation-filters="sRGB">
<feFlood flood-opacity="0" result="BackgroundImageFix"/>
<feColorMatrix in="SourceAlpha" type="matrix" values="0 0 0 0 0 0 0 0 0 0 0 0 0 0 0 0 0 0 127 0" result="hardAlpha"/>
<feOffset dy="4"/>
<feGaussianBlur stdDeviation="2"/>
<feComposite in2="hardAlpha" operator="out"/>
<feColorMatrix type="matrix" values="0 0 0 0 0 0 0 0 0 0 0 0 0 0 0 0 0 0 0.25 0"/>
<feBlend mode="normal" in2="BackgroundImageFix" result="effect1_dropShadow_4_19"/>
<feBlend mode="normal" in="SourceGraphic" in2="effect1_dropShadow_4_19" result="shape"/>
</filter>
<linearGradient id="paint0_linear_4_19" x1="14" y1="113" x2="638" y2="113" gradientUnits="userSpaceOnUse">
<stop stop-color="#2D22C0"/>
<stop offset="1" stop-color="#9EE8FF"/>
</linearGradient>
<linearGradient id="paint1_linear_4_19" x1="13" y1="265" x2="638" y2="265" gradientUnits="userSpaceOnUse">
<stop offset="0.0179406" stop-color="#2D22C0"/>
<stop offset="0.97757" stop-color="#9EE8FF"/>
</linearGradient>
<linearGradient id="paint2_linear_4_19" x1="14" y1="480" x2="638" y2="480" gradientUnits="userSpaceOnUse">
<stop stop-color="#2D22C0"/>
<stop offset="0.953125" stop-color="#9EE8FF"/>
</linearGradient>
<linearGradient id="paint3_linear_4_19" x1="19.3191" y1="188" x2="214" y2="188" gradientUnits="userSpaceOnUse">
<stop stop-color="#43CFFB"/>
<stop offset="1" stop-color="#140A9A"/>
</linearGradient>
<linearGradient id="paint4_linear_4_19" x1="231.319" y1="188" x2="426" y2="188" gradientUnits="userSpaceOnUse">
<stop stop-color="#43CFFB"/>
<stop offset="1" stop-color="#140A9A"/>
</linearGradient>
<linearGradient id="paint5_linear_4_19" x1="443.319" y1="188" x2="638" y2="188" gradientUnits="userSpaceOnUse">
<stop stop-color="#43CFFB"/>
<stop offset="0.994792" stop-color="#140A9A"/>
</linearGradient>
<linearGradient id="paint6_linear_4_19" x1="652" y1="105" x2="652" y2="236" gradientUnits="userSpaceOnUse">
<stop stop-color="#150C9B"/>
<stop offset="1" stop-color="#43CFFB"/>
</linearGradient>
<linearGradient id="paint7_linear_4_19" x1="212.501" y1="16.0255" x2="213.215" y2="86.0284" gradientUnits="userSpaceOnUse">
<stop stop-color="#150C9B"/>
<stop offset="1" stop-color="#43CFFB"/>
</linearGradient>
<linearGradient id="paint8_linear_4_19" x1="870" y1="105" x2="870" y2="236" gradientUnits="userSpaceOnUse">
<stop stop-color="#150C9B"/>
<stop offset="1" stop-color="#43CFFB"/>
</linearGradient>
<linearGradient id="paint9_linear_4_19" x1="1077" y1="105" x2="1077" y2="236" gradientUnits="userSpaceOnUse">
<stop stop-color="#150C9B"/>
<stop offset="1" stop-color="#43CFFB"/>
</linearGradient>
</defs>
</svg>
